# xmcd
#
# Track frame offsets:
#	182
#	61695
#	85280
#	102917
#	135525
#	159895
#	209525
#	245515
#	290722
#
# Disc length: 4169 seconds
#
# Revision: 1
# Processed by: cddbd v1.5PL3 Copyright (c) Steve Scherf et al.
# Submitted via: EasyCDDAExtractor 5.1.0
#
DISCID=7a104709
DTITLE=Régis Campo - Ensemble de Moscow
DYEAR=1999
DGENRE=Bluegrass
TTITLE0=Commedia
TTITLE1=Epiphanie
TTITLE2=Concerto de chambre
TTITLE3=Concerto de chambre (2)
TTITLE4=Concerto de chambre (3)
TTITLE5=Longtemps je...
TTITLE6=Ambrées
TTITLE7=Anima
TTITLE8=Sonate n°2
EXTD=
EXTT0=
EXTT1=
EXTT2=
EXTT3=
EXTT4=
EXTT5=
EXTT6=
EXTT7=
EXTT8=
PLAYORDER=
